
<svg t="1697611943394" class="icon" viewBox="0 0 1024 1024" version="1.1" xmlns="http://www.w3.org/2000/svg" p-id="1605" width="200" height="200"><path d="M384 128c0-70.688 57.312-128 128-128s128 57.312 128 128c0 70.688-57.312 128-128 128s-128-57.312-128-128zM655.52 240.48c0-70.688 57.312-128 128-128s128 57.312 128 128c0 70.688-57.312 128-128 128s-128-57.312-128-128zM832 512c0-35.36 28.64-64 64-64s64 28.64 64 64c0 35.36-28.64 64-64 64s-64-28.64-64-64zM719.52 783.52c0-35.36 28.64-64 64-64s64 28.64 64 64c0 35.36-28.64 64-64 64s-64-28.64-64-64zM448 896c0 0 0 0 0 0 0-35.36 28.64-64 64-64s64 28.64 64 64c0 0 0 0 0 0 0 35.36-28.64 64-64 64s-64-28.64-64-64zM176.48 783.52c0 0 0 0 0 0 0-35.36 28.64-64 64-64s64 28.64 64 64c0 0 0 0 0 0 0 35.36-28.64 64-64 64s-64-28.64-64-64zM144.48 240.48c0 0 0 0 0 0 0-53.024 42.976-96 96-96s96 42.976 96 96c0 0 0 0 0 0 0 53.024-42.976 96-96 96s-96-42.976-96-96zM56 512c0-39.776 32.224-72 72-72s72 32.224 72 72c0 39.776-32.224 72-72 72s-72-32.224-72-72z" fill="#8a8a8a" p-id="1606"></path></svg>